<mxfile host="app.diagrams.net" agent="Mozilla/5.0 (Macintosh; Intel Mac OS X 10_15_7) AppleWebKit/537.36 (KHTML, like Gecko) Chrome/128.0.0.0 Safari/537.36" version="24.8.4">
  <diagram name="Page-1" id="c85glCetXg5F16J9BWZi">
    <mxGraphModel grid="0" page="1" gridSize="10" guides="1" tooltips="1" connect="1" arrows="1" fold="1" pageScale="1" pageWidth="396" pageHeight="549" math="0" shadow="0">
      <root>
        <mxCell id="0" />
        <mxCell id="1" parent="0" />
        <mxCell id="YZZXuTp7i8qTPh9pi9-T-20" value="" style="rounded=0;whiteSpace=wrap;html=1;dashed=1;" vertex="1" parent="1">
          <mxGeometry x="260" y="174" width="107" height="108" as="geometry" />
        </mxCell>
        <mxCell id="YZZXuTp7i8qTPh9pi9-T-17" value="" style="rounded=0;whiteSpace=wrap;html=1;dashed=1;" vertex="1" parent="1">
          <mxGeometry x="31" y="174" width="223" height="108" as="geometry" />
        </mxCell>
        <mxCell id="YZZXuTp7i8qTPh9pi9-T-16" value="" style="rounded=0;whiteSpace=wrap;html=1;dashed=1;" vertex="1" parent="1">
          <mxGeometry x="31" y="56" width="335" height="114" as="geometry" />
        </mxCell>
        <mxCell id="YZZXuTp7i8qTPh9pi9-T-9" value="" style="edgeStyle=orthogonalEdgeStyle;rounded=0;orthogonalLoop=1;jettySize=auto;html=1;" edge="1" parent="1" source="YZZXuTp7i8qTPh9pi9-T-1" target="YZZXuTp7i8qTPh9pi9-T-2">
          <mxGeometry relative="1" as="geometry" />
        </mxCell>
        <mxCell id="YZZXuTp7i8qTPh9pi9-T-1" value="&lt;font style=&quot;font-size: 8px;&quot;&gt;Extract&lt;/font&gt;" style="whiteSpace=wrap;html=1;aspect=fixed;fillColor=#99CCFF;" vertex="1" parent="1">
          <mxGeometry x="38" y="75" width="80" height="80" as="geometry" />
        </mxCell>
        <mxCell id="YZZXuTp7i8qTPh9pi9-T-10" value="" style="edgeStyle=orthogonalEdgeStyle;rounded=0;orthogonalLoop=1;jettySize=auto;html=1;" edge="1" parent="1" source="YZZXuTp7i8qTPh9pi9-T-2" target="YZZXuTp7i8qTPh9pi9-T-3">
          <mxGeometry relative="1" as="geometry" />
        </mxCell>
        <mxCell id="YZZXuTp7i8qTPh9pi9-T-2" value="&lt;font style=&quot;font-size: 8px;&quot;&gt;Transform&lt;/font&gt;" style="whiteSpace=wrap;html=1;aspect=fixed;fillColor=#66B2FF;" vertex="1" parent="1">
          <mxGeometry x="158" y="75" width="80" height="80" as="geometry" />
        </mxCell>
        <mxCell id="YZZXuTp7i8qTPh9pi9-T-11" style="edgeStyle=orthogonalEdgeStyle;rounded=0;orthogonalLoop=1;jettySize=auto;html=1;exitX=1;exitY=0.5;exitDx=0;exitDy=0;entryX=1;entryY=0.5;entryDx=0;entryDy=0;" edge="1" parent="1" source="YZZXuTp7i8qTPh9pi9-T-3" target="YZZXuTp7i8qTPh9pi9-T-6">
          <mxGeometry relative="1" as="geometry" />
        </mxCell>
        <mxCell id="YZZXuTp7i8qTPh9pi9-T-3" value="&lt;font style=&quot;font-size: 8px;&quot;&gt;Load&lt;/font&gt;" style="whiteSpace=wrap;html=1;aspect=fixed;fillColor=#3399FF;" vertex="1" parent="1">
          <mxGeometry x="278" y="75" width="80" height="80" as="geometry" />
        </mxCell>
        <mxCell id="YZZXuTp7i8qTPh9pi9-T-14" style="edgeStyle=orthogonalEdgeStyle;rounded=0;orthogonalLoop=1;jettySize=auto;html=1;" edge="1" parent="1" source="YZZXuTp7i8qTPh9pi9-T-4" target="YZZXuTp7i8qTPh9pi9-T-7">
          <mxGeometry relative="1" as="geometry">
            <Array as="points">
              <mxPoint x="78" y="292" />
              <mxPoint x="200" y="292" />
            </Array>
          </mxGeometry>
        </mxCell>
        <mxCell id="YZZXuTp7i8qTPh9pi9-T-4" value="&lt;font style=&quot;font-size: 8px;&quot;&gt;Analyze&lt;/font&gt;" style="whiteSpace=wrap;html=1;aspect=fixed;fillColor=#99FF99;" vertex="1" parent="1">
          <mxGeometry x="38" y="192" width="80" height="80" as="geometry" />
        </mxCell>
        <mxCell id="YZZXuTp7i8qTPh9pi9-T-13" value="" style="edgeStyle=orthogonalEdgeStyle;rounded=0;orthogonalLoop=1;jettySize=auto;html=1;" edge="1" parent="1" source="YZZXuTp7i8qTPh9pi9-T-5" target="YZZXuTp7i8qTPh9pi9-T-4">
          <mxGeometry relative="1" as="geometry" />
        </mxCell>
        <mxCell id="YZZXuTp7i8qTPh9pi9-T-5" value="&lt;font style=&quot;font-size: 8px;&quot;&gt;Activate&lt;/font&gt;" style="whiteSpace=wrap;html=1;aspect=fixed;fillColor=#CCFFCC;" vertex="1" parent="1">
          <mxGeometry x="158" y="192" width="80" height="80" as="geometry" />
        </mxCell>
        <mxCell id="YZZXuTp7i8qTPh9pi9-T-12" value="" style="edgeStyle=orthogonalEdgeStyle;rounded=0;orthogonalLoop=1;jettySize=auto;html=1;" edge="1" parent="1" source="YZZXuTp7i8qTPh9pi9-T-6" target="YZZXuTp7i8qTPh9pi9-T-5">
          <mxGeometry relative="1" as="geometry" />
        </mxCell>
        <mxCell id="YZZXuTp7i8qTPh9pi9-T-6" value="&lt;font style=&quot;font-size: 8px;&quot;&gt;Organize&lt;/font&gt;" style="whiteSpace=wrap;html=1;aspect=fixed;fillColor=#FFCC99;" vertex="1" parent="1">
          <mxGeometry x="278" y="192" width="80" height="80" as="geometry" />
        </mxCell>
        <mxCell id="YZZXuTp7i8qTPh9pi9-T-8" style="edgeStyle=orthogonalEdgeStyle;rounded=0;orthogonalLoop=1;jettySize=auto;html=1;exitX=0;exitY=0.5;exitDx=0;exitDy=0;entryX=0;entryY=0.5;entryDx=0;entryDy=0;" edge="1" parent="1" source="YZZXuTp7i8qTPh9pi9-T-7" target="YZZXuTp7i8qTPh9pi9-T-1">
          <mxGeometry relative="1" as="geometry" />
        </mxCell>
        <mxCell id="YZZXuTp7i8qTPh9pi9-T-7" value="&lt;font style=&quot;font-size: 8px;&quot;&gt;Feedback Loop&lt;/font&gt;" style="whiteSpace=wrap;html=1;aspect=fixed;fillColor=#FFFFCC;" vertex="1" parent="1">
          <mxGeometry x="160" y="309" width="80" height="80" as="geometry" />
        </mxCell>
        <mxCell id="YZZXuTp7i8qTPh9pi9-T-18" value="&lt;font style=&quot;font-size: 8px;&quot;&gt;Data Engineers&lt;/font&gt;" style="text;html=1;align=center;verticalAlign=middle;whiteSpace=wrap;rounded=0;" vertex="1" parent="1">
          <mxGeometry x="-3" y="48" width="137" height="30" as="geometry" />
        </mxCell>
        <mxCell id="YZZXuTp7i8qTPh9pi9-T-19" value="&lt;span style=&quot;font-size: 8px;&quot;&gt;Data Analysts/Scientists&lt;/span&gt;" style="text;html=1;align=center;verticalAlign=middle;whiteSpace=wrap;rounded=0;" vertex="1" parent="1">
          <mxGeometry x="9.5" y="165" width="137" height="30" as="geometry" />
        </mxCell>
        <mxCell id="YZZXuTp7i8qTPh9pi9-T-21" value="&lt;span style=&quot;font-size: 8px;&quot;&gt;Data Architects&lt;/span&gt;" style="text;html=1;align=center;verticalAlign=middle;whiteSpace=wrap;rounded=0;" vertex="1" parent="1">
          <mxGeometry x="229" y="165" width="137" height="30" as="geometry" />
        </mxCell>
      </root>
    </mxGraphModel>
  </diagram>
</mxfile>
